<svg width="728" height="200" viewBox="0 0 728 200" fill="none" xmlns="http://www.w3.org/2000/svg">
<path opacity="0.54" d="M518.047 122.079H512.435V78.7412H537.922V84.0657H518.047V98.2943H535.974V103.496H518.047V122.08L518.047 122.079ZM548.474 84.9783C547.136 86.312 545.035 86.5215 543.457 85.4787C541.878 84.4359 541.262 82.4314 541.986 80.6917C542.709 78.952 544.569 77.9618 546.429 78.327C548.289 78.6923 549.63 80.3112 549.631 82.1931C549.649 83.2413 549.229 84.2499 548.469 84.9783H548.474H548.474ZM548.474 122.079H542.862V92.4213H548.474V122.08V122.079ZM560.788 122.079H555.176V92.4213H560.541V97.2635H560.783C561.431 95.5572 562.676 94.139 564.29 93.2678C565.831 92.2858 567.613 91.7412 569.444 91.6931C570.882 91.6526 572.312 91.9003 573.651 92.4213L571.517 97.6228C570.554 97.3049 569.543 97.1608 568.53 97.1973C566.472 97.2076 564.513 98.0759 563.132 99.59C561.566 101.185 560.784 103.274 560.784 105.855L560.788 122.08L560.788 122.079ZM589.029 123.025C584.516 123.025 580.847 121.533 578.024 118.548C575.201 115.563 573.787 111.797 573.784 107.251C573.701 103.158 575.17 99.1834 577.9 96.1148C580.515 93.0604 584.382 91.3461 588.419 91.4517C592.849 91.4517 596.396 92.8845 599.061 95.75C601.726 98.6156 603.056 102.449 603.053 107.25L602.991 108.281H579.386C579.548 111.266 580.554 113.631 582.406 115.374C584.138 117.061 586.473 117.997 588.899 117.975C592.922 117.975 595.646 116.28 597.069 112.892L602.071 114.949C601.057 117.293 599.385 119.299 597.254 120.727C595.016 122.259 592.273 123.025 589.027 123.025L589.029 123.025ZM597.079 103.638C596.959 101.942 596.176 100.328 594.731 98.7955C593.286 97.2633 591.137 96.5132 588.285 96.5446C586.307 96.5102 584.386 97.2005 582.888 98.4834C581.319 99.8483 580.221 101.668 579.748 103.685L597.079 103.638L597.079 103.638ZM623.328 123.025C621.205 123.067 619.105 122.579 617.221 121.607C615.566 120.778 614.166 119.524 613.167 117.975H612.924V122.08H607.555V78.7412H613.167V92.4213L612.924 96.5353H613.167C614.166 94.9862 615.566 93.732 617.221 92.9037C619.102 91.9198 621.202 91.4206 623.328 91.452C627.19 91.452 630.525 92.9652 633.333 95.9915C636.14 99.0179 637.542 102.771 637.539 107.25C637.536 111.73 636.137 115.483 633.333 118.509C630.528 121.536 627.194 123.041 623.328 123.025L623.328 123.025ZM622.414 117.942C624.97 117.962 627.412 116.893 629.121 115.005C630.992 113.048 631.927 110.455 631.927 107.227C631.927 103.999 630.992 101.406 629.121 99.448C627.393 97.5831 624.958 96.5196 622.406 96.5142C619.853 96.5087 617.414 97.5621 615.677 99.4195C613.829 101.355 612.905 103.957 612.905 107.227C612.905 110.496 613.839 113.106 615.706 115.057C617.425 116.938 619.874 117.996 622.433 117.965L622.414 117.942L622.414 117.942ZM651.826 123.025C648.65 123.025 645.998 122.117 643.87 120.302C641.742 118.486 640.675 116.085 640.669 113.1C640.669 109.872 641.93 107.34 644.451 105.505C646.973 103.671 650.082 102.753 653.779 102.753C657.072 102.753 659.773 103.359 661.878 104.569V103.723C661.958 101.729 661.128 99.8062 659.62 98.4882C658.083 97.1747 656.106 96.4812 654.079 96.5447C652.528 96.5255 651.001 96.922 649.658 97.6938C648.401 98.3851 647.437 99.5032 646.943 100.843L641.822 98.6631C642.514 96.882 643.877 95.2301 645.916 93.7075C647.955 92.1849 650.632 91.4283 653.967 91.4377C657.778 91.4377 660.954 92.5411 663.494 94.7478C666.035 96.9544 667.296 100.082 667.277 104.129V122.08H661.894V117.966H661.651C659.412 121.339 656.139 123.019 651.832 123.019L651.826 123.025ZM652.741 117.942C655.099 117.934 657.362 117.02 659.057 115.393C660.864 113.881 661.909 111.657 661.916 109.312C660.328 108.019 657.946 107.373 654.77 107.373C652.045 107.373 649.992 107.958 648.61 109.127C647.321 110.111 646.557 111.627 646.538 113.241C646.512 114.646 647.237 115.96 648.444 116.693C649.713 117.54 651.212 117.984 652.741 117.965V117.942L652.741 117.942ZM683.777 123.025C680.442 123.025 677.689 122.218 675.517 120.604C673.403 119.055 671.756 116.962 670.753 114.551L675.755 112.494C677.343 116.208 680.042 118.065 683.853 118.065C685.367 118.126 686.864 117.725 688.141 116.916C689.194 116.267 689.83 115.12 689.818 113.889C689.818 111.954 688.455 110.642 685.724 109.955L679.688 108.503C677.702 107.982 675.852 107.043 674.262 105.751C672.57 104.442 671.616 102.404 671.699 100.276C671.699 97.653 672.868 95.5248 675.205 93.8918C677.651 92.2258 680.563 91.3685 683.528 91.4423C686.003 91.403 688.444 92.0219 690.597 93.2345C692.63 94.3801 694.202 96.1874 695.047 98.351L690.173 100.328C689.078 97.7049 686.801 96.3932 683.342 96.3932C681.871 96.3446 680.415 96.7015 679.136 97.4241C678.087 97.9631 677.43 99.0374 677.43 100.209C677.43 101.905 678.751 103.056 681.394 103.661L687.306 105.056C690.11 105.687 692.184 106.79 693.527 108.366C694.828 109.839 695.543 111.732 695.538 113.691C695.564 116.302 694.343 118.772 692.246 120.349C690.051 122.133 687.226 123.025 683.771 123.025L683.777 123.025ZM713.961 123.025C709.448 123.025 705.78 121.533 702.956 118.548C700.133 115.563 698.72 111.788 698.716 107.227C698.633 103.134 700.103 99.1594 702.832 96.0907C705.457 93.044 709.329 91.3389 713.365 91.4519C717.811 91.4519 721.359 92.8848 724.008 95.7503C726.656 98.6158 727.987 102.449 728 107.25L727.938 108.281H704.313C704.475 111.267 705.482 113.631 707.334 115.374C709.07 117.061 711.412 117.994 713.841 117.966C717.865 117.966 720.588 116.27 722.011 112.882L727.013 114.939C726 117.284 724.328 119.29 722.197 120.718C719.958 122.256 717.212 123.025 713.96 123.025L713.961 123.025ZM722.012 103.638C721.891 101.942 721.108 100.328 719.663 98.7955C718.218 97.2633 716.073 96.5132 713.227 96.5446C711.249 96.5107 709.328 97.2009 707.83 98.4834C706.261 99.8483 705.163 101.668 704.69 103.685L722.012 103.638V103.638Z" fill="black"/>
<path d="M428.533 125.406L438.852 59.3757C438.978 58.5658 439.608 57.9275 440.416 57.7902C441.224 57.6529 442.029 58.0478 442.416 58.7706L453.087 78.6751L457.341 70.576C457.671 69.9498 458.32 69.5577 459.028 69.5577C459.735 69.5577 460.385 69.9498 460.714 70.576L489.513 125.406H428.533V125.406Z" fill="#FFA000"/>
<path d="M464.183 99.6849L453.083 78.6656L428.533 125.406L464.183 99.6849Z" fill="#F57C00"/>
<path d="M489.514 125.406L481.61 76.4979C481.491 75.7956 480.99 75.2186 480.311 75.0011C479.632 74.7836 478.889 74.9647 478.385 75.4682L428.533 125.406L456.117 140.875C457.85 141.842 459.959 141.842 461.691 140.875L489.514 125.406V125.406Z" fill="#FFCA28"/>
<path d="M481.61 76.4979C481.491 75.7956 480.989 75.2186 480.311 75.0011C479.632 74.7836 478.889 74.9646 478.385 75.4682L468.49 85.3877L460.71 70.5757C460.38 69.9495 459.731 69.5573 459.023 69.5573C458.316 69.5573 457.666 69.9495 457.337 70.5757L453.083 78.6747L442.411 58.7706C442.024 58.0476 441.218 57.6534 440.409 57.7916C439.6 57.9299 438.972 58.5699 438.847 59.3804L428.533 125.406H428.5L428.533 125.445L428.805 125.578L478.37 75.9548C478.874 75.4485 479.619 75.2665 480.3 75.4833C480.98 75.7002 481.482 76.2794 481.601 76.9838L489.438 125.454L489.514 125.406L481.61 76.4978L481.61 76.4979ZM428.624 125.316L438.852 59.8473C438.977 59.0369 439.606 58.3969 440.414 58.2586C441.222 58.1203 442.029 58.5145 442.416 59.2375L453.087 79.142L457.341 71.0429C457.671 70.4167 458.32 70.0246 459.028 70.0246C459.735 70.0246 460.385 70.4167 460.714 71.0429L468.337 85.5402L428.623 125.316H428.624Z" fill="white" fill-opacity="0.2"/>
<path opacity="0.2" d="M461.691 140.409C459.959 141.376 457.85 141.376 456.117 140.409L428.6 124.983L428.533 125.407L456.117 140.871C457.849 141.838 459.959 141.838 461.691 140.871L489.514 125.407L489.442 124.968L461.691 140.409V140.409Z" fill="#A52714"/>
<path d="M481.531 76.508C481.412 75.8059 480.913 75.2287 480.236 75.0125C479.56 74.7963 478.819 74.976 478.317 75.4794L468.457 85.394L460.704 70.5888C460.376 69.9628 459.729 69.5709 459.023 69.5709C458.318 69.5709 457.671 69.9628 457.343 70.5888L453.103 78.6843L442.469 58.7884C442.083 58.0658 441.28 57.6716 440.475 57.81C439.669 57.9483 439.042 58.5878 438.918 59.398L428.64 125.395L456.128 140.853C457.854 141.819 459.956 141.819 461.682 140.853L489.407 125.395L481.531 76.5079V76.508Z" fill="url(#paint0_linear)"/>
<path opacity="0.54" d="M171.367 86.7852H166.141V101H162.625V86.7852H157.469V83.9375H171.367V86.7852ZM177.941 101.234C176.082 101.234 174.566 100.664 173.395 99.5234C172.23 98.3828 171.648 96.8633 171.648 94.9648V94.6367C171.648 93.3633 171.895 92.2266 172.387 91.2266C172.879 90.2188 173.574 89.4453 174.473 88.9062C175.379 88.3594 176.41 88.0859 177.566 88.0859C179.301 88.0859 180.664 88.6328 181.656 89.7266C182.656 90.8203 183.156 92.3711 183.156 94.3789V95.7617H175.082C175.191 96.5898 175.52 97.2539 176.066 97.7539C176.621 98.2539 177.32 98.5039 178.164 98.5039C179.469 98.5039 180.488 98.0312 181.223 97.0859L182.887 98.9492C182.379 99.668 181.691 100.23 180.824 100.637C179.957 101.035 178.996 101.234 177.941 101.234ZM177.555 90.8281C176.883 90.8281 176.336 91.0547 175.914 91.5078C175.5 91.9609 175.234 92.6094 175.117 93.4531H179.828V93.1836C179.812 92.4336 179.609 91.8555 179.219 91.4492C178.828 91.0352 178.273 90.8281 177.555 90.8281ZM188.664 101H185.266V83H188.664V101ZM197.301 101.234C195.441 101.234 193.926 100.664 192.754 99.5234C191.59 98.3828 191.008 96.8633 191.008 94.9648V94.6367C191.008 93.3633 191.254 92.2266 191.746 91.2266C192.238 90.2188 192.934 89.4453 193.832 88.9062C194.738 88.3594 195.77 88.0859 196.926 88.0859C198.66 88.0859 200.023 88.6328 201.016 89.7266C202.016 90.8203 202.516 92.3711 202.516 94.3789V95.7617H194.441C194.551 96.5898 194.879 97.2539 195.426 97.7539C195.98 98.2539 196.68 98.5039 197.523 98.5039C198.828 98.5039 199.848 98.0312 200.582 97.0859L202.246 98.9492C201.738 99.668 201.051 100.23 200.184 100.637C199.316 101.035 198.355 101.234 197.301 101.234ZM196.914 90.8281C196.242 90.8281 195.695 91.0547 195.273 91.5078C194.859 91.9609 194.594 92.6094 194.477 93.4531H199.188V93.1836C199.172 92.4336 198.969 91.8555 198.578 91.4492C198.188 91.0352 197.633 90.8281 196.914 90.8281ZM211.574 91.4961C211.113 91.4336 210.707 91.4023 210.355 91.4023C209.074 91.4023 208.234 91.8359 207.836 92.7031V101H204.449V88.3203H207.648L207.742 89.832C208.422 88.668 209.363 88.0859 210.566 88.0859C210.941 88.0859 211.293 88.1367 211.621 88.2383L211.574 91.4961ZM218.816 101.234C216.957 101.234 215.441 100.664 214.27 99.5234C213.105 98.3828 212.523 96.8633 212.523 94.9648V94.6367C212.523 93.3633 212.77 92.2266 213.262 91.2266C213.754 90.2188 214.449 89.4453 215.348 88.9062C216.254 88.3594 217.285 88.0859 218.441 88.0859C220.176 88.0859 221.539 88.6328 222.531 89.7266C223.531 90.8203 224.031 92.3711 224.031 94.3789V95.7617H215.957C216.066 96.5898 216.395 97.2539 216.941 97.7539C217.496 98.2539 218.195 98.5039 219.039 98.5039C220.344 98.5039 221.363 98.0312 222.098 97.0859L223.762 98.9492C223.254 99.668 222.566 100.23 221.699 100.637C220.832 101.035 219.871 101.234 218.816 101.234ZM218.43 90.8281C217.758 90.8281 217.211 91.0547 216.789 91.5078C216.375 91.9609 216.109 92.6094 215.992 93.4531H220.703V93.1836C220.688 92.4336 220.484 91.8555 220.094 91.4492C219.703 91.0352 219.148 90.8281 218.43 90.8281ZM232.832 97.4961C232.832 97.082 232.625 96.7578 232.211 96.5234C231.805 96.2812 231.148 96.0664 230.242 95.8789C227.227 95.2461 225.719 93.9648 225.719 92.0352C225.719 90.9102 226.184 89.9727 227.113 89.2227C228.051 88.4648 229.273 88.0859 230.781 88.0859C232.391 88.0859 233.676 88.4648 234.637 89.2227C235.605 89.9805 236.09 90.9648 236.09 92.1758H232.703C232.703 91.6914 232.547 91.293 232.234 90.9805C231.922 90.6602 231.434 90.5 230.77 90.5C230.199 90.5 229.758 90.6289 229.445 90.8867C229.133 91.1445 228.977 91.4727 228.977 91.8711C228.977 92.2461 229.152 92.5508 229.504 92.7852C229.863 93.0117 230.465 93.2109 231.309 93.3828C232.152 93.5469 232.863 93.7344 233.441 93.9453C235.23 94.6016 236.125 95.7383 236.125 97.3555C236.125 98.5117 235.629 99.4492 234.637 100.168C233.645 100.879 232.363 101.234 230.793 101.234C229.73 101.234 228.785 101.047 227.957 100.672C227.137 100.289 226.492 99.7695 226.023 99.1133C225.555 98.4492 225.32 97.7344 225.32 96.9688H228.531C228.562 97.5703 228.785 98.0312 229.199 98.3516C229.613 98.6719 230.168 98.832 230.863 98.832C231.512 98.832 232 98.7109 232.328 98.4688C232.664 98.2188 232.832 97.8945 232.832 97.4961ZM237.789 94.543C237.789 93.2852 238.031 92.1641 238.516 91.1797C239 90.1953 239.695 89.4336 240.602 88.8945C241.516 88.3555 242.574 88.0859 243.777 88.0859C245.488 88.0859 246.883 88.6094 247.961 89.6562C249.047 90.7031 249.652 92.125 249.777 93.9219L249.801 94.7891C249.801 96.7344 249.258 98.2969 248.172 99.4766C247.086 100.648 245.629 101.234 243.801 101.234C241.973 101.234 240.512 100.648 239.418 99.4766C238.332 98.3047 237.789 96.7109 237.789 94.6953V94.543ZM241.176 94.7891C241.176 95.9922 241.402 96.9141 241.855 97.5547C242.309 98.1875 242.957 98.5039 243.801 98.5039C244.621 98.5039 245.262 98.1914 245.723 97.5664C246.184 96.9336 246.414 95.9258 246.414 94.543C246.414 93.3633 246.184 92.4492 245.723 91.8008C245.262 91.1523 244.613 90.8281 243.777 90.8281C242.949 90.8281 242.309 91.1523 241.855 91.8008C241.402 92.4414 241.176 93.4375 241.176 94.7891ZM261.438 101H258.039V88.3203H261.438V101ZM257.84 85.0391C257.84 84.5312 258.008 84.1133 258.344 83.7852C258.688 83.457 259.152 83.293 259.738 83.293C260.316 83.293 260.777 83.457 261.121 83.7852C261.465 84.1133 261.637 84.5312 261.637 85.0391C261.637 85.5547 261.461 85.9766 261.109 86.3047C260.766 86.6328 260.309 86.7969 259.738 86.7969C259.168 86.7969 258.707 86.6328 258.355 86.3047C258.012 85.9766 257.84 85.5547 257.84 85.0391ZM267.355 88.3203L267.461 89.7852C268.367 88.6523 269.582 88.0859 271.105 88.0859C272.449 88.0859 273.449 88.4805 274.105 89.2695C274.762 90.0586 275.098 91.2383 275.113 92.8086V101H271.727V92.8906C271.727 92.1719 271.57 91.6523 271.258 91.332C270.945 91.0039 270.426 90.8398 269.699 90.8398C268.746 90.8398 268.031 91.2461 267.555 92.0586V101H264.168V88.3203H267.355ZM281.746 85.2031V88.3203H283.914V90.8047H281.746V97.1328C281.746 97.6016 281.836 97.9375 282.016 98.1406C282.195 98.3438 282.539 98.4453 283.047 98.4453C283.422 98.4453 283.754 98.418 284.043 98.3633V100.93C283.379 101.133 282.695 101.234 281.992 101.234C279.617 101.234 278.406 100.035 278.359 97.6367V90.8047H276.508V88.3203H278.359V85.2031H281.746ZM291.637 101.234C289.777 101.234 288.262 100.664 287.09 99.5234C285.926 98.3828 285.344 96.8633 285.344 94.9648V94.6367C285.344 93.3633 285.59 92.2266 286.082 91.2266C286.574 90.2188 287.27 89.4453 288.168 88.9062C289.074 88.3594 290.105 88.0859 291.262 88.0859C292.996 88.0859 294.359 88.6328 295.352 89.7266C296.352 90.8203 296.852 92.3711 296.852 94.3789V95.7617H288.777C288.887 96.5898 289.215 97.2539 289.762 97.7539C290.316 98.2539 291.016 98.5039 291.859 98.5039C293.164 98.5039 294.184 98.0312 294.918 97.0859L296.582 98.9492C296.074 99.668 295.387 100.23 294.52 100.637C293.652 101.035 292.691 101.234 291.637 101.234ZM291.25 90.8281C290.578 90.8281 290.031 91.0547 289.609 91.5078C289.195 91.9609 288.93 92.6094 288.812 93.4531H293.523V93.1836C293.508 92.4336 293.305 91.8555 292.914 91.4492C292.523 91.0352 291.969 90.8281 291.25 90.8281ZM298.293 94.5664C298.293 92.6211 298.754 91.0547 299.676 89.8672C300.605 88.6797 301.855 88.0859 303.426 88.0859C304.816 88.0859 305.898 88.5625 306.672 89.5156L306.812 88.3203H309.883V100.578C309.883 101.688 309.629 102.652 309.121 103.473C308.621 104.293 307.914 104.918 307 105.348C306.086 105.777 305.016 105.992 303.789 105.992C302.859 105.992 301.953 105.805 301.07 105.43C300.188 105.062 299.52 104.586 299.066 104L300.566 101.938C301.41 102.883 302.434 103.355 303.637 103.355C304.535 103.355 305.234 103.113 305.734 102.629C306.234 102.152 306.484 101.473 306.484 100.59V99.9102C305.703 100.793 304.676 101.234 303.402 101.234C301.879 101.234 300.645 100.641 299.699 99.4531C298.762 98.2578 298.293 96.6758 298.293 94.707V94.5664ZM301.68 94.8125C301.68 95.9609 301.91 96.8633 302.371 97.5195C302.832 98.168 303.465 98.4922 304.27 98.4922C305.301 98.4922 306.039 98.1055 306.484 97.332V92C306.031 91.2266 305.301 90.8398 304.293 90.8398C303.48 90.8398 302.84 91.1719 302.371 91.8359C301.91 92.5 301.68 93.4922 301.68 94.8125ZM319.621 91.4961C319.16 91.4336 318.754 91.4023 318.402 91.4023C317.121 91.4023 316.281 91.8359 315.883 92.7031V101H312.496V88.3203H315.695L315.789 89.832C316.469 88.668 317.41 88.0859 318.613 88.0859C318.988 88.0859 319.34 88.1367 319.668 88.2383L319.621 91.4961ZM328.258 101C328.102 100.695 327.988 100.316 327.918 99.8633C327.098 100.777 326.031 101.234 324.719 101.234C323.477 101.234 322.445 100.875 321.625 100.156C320.812 99.4375 320.406 98.5312 320.406 97.4375C320.406 96.0938 320.902 95.0625 321.895 94.3438C322.895 93.625 324.336 93.2617 326.219 93.2539H327.777V92.5273C327.777 91.9414 327.625 91.4727 327.32 91.1211C327.023 90.7695 326.551 90.5938 325.902 90.5938C325.332 90.5938 324.883 90.7305 324.555 91.0039C324.234 91.2773 324.074 91.6523 324.074 92.1289H320.688C320.688 91.3945 320.914 90.7148 321.367 90.0898C321.82 89.4648 322.461 88.9766 323.289 88.625C324.117 88.2656 325.047 88.0859 326.078 88.0859C327.641 88.0859 328.879 88.4805 329.793 89.2695C330.715 90.0508 331.176 91.1523 331.176 92.5742V98.0703C331.184 99.2734 331.352 100.184 331.68 100.801V101H328.258ZM325.457 98.6445C325.957 98.6445 326.418 98.5352 326.84 98.3164C327.262 98.0898 327.574 97.7891 327.777 97.4141V95.2344H326.512C324.816 95.2344 323.914 95.8203 323.805 96.9922L323.793 97.1914C323.793 97.6133 323.941 97.9609 324.238 98.2344C324.535 98.5078 324.941 98.6445 325.457 98.6445ZM337.832 85.2031V88.3203H340V90.8047H337.832V97.1328C337.832 97.6016 337.922 97.9375 338.102 98.1406C338.281 98.3438 338.625 98.4453 339.133 98.4453C339.508 98.4453 339.84 98.418 340.129 98.3633V100.93C339.465 101.133 338.781 101.234 338.078 101.234C335.703 101.234 334.492 100.035 334.445 97.6367V90.8047H332.594V88.3203H334.445V85.2031H337.832ZM347.723 101.234C345.863 101.234 344.348 100.664 343.176 99.5234C342.012 98.3828 341.43 96.8633 341.43 94.9648V94.6367C341.43 93.3633 341.676 92.2266 342.168 91.2266C342.66 90.2188 343.355 89.4453 344.254 88.9062C345.16 88.3594 346.191 88.0859 347.348 88.0859C349.082 88.0859 350.445 88.6328 351.438 89.7266C352.438 90.8203 352.938 92.3711 352.938 94.3789V95.7617H344.863C344.973 96.5898 345.301 97.2539 345.848 97.7539C346.402 98.2539 347.102 98.5039 347.945 98.5039C349.25 98.5039 350.27 98.0312 351.004 97.0859L352.668 98.9492C352.16 99.668 351.473 100.23 350.605 100.637C349.738 101.035 348.777 101.234 347.723 101.234ZM347.336 90.8281C346.664 90.8281 346.117 91.0547 345.695 91.5078C345.281 91.9609 345.016 92.6094 344.898 93.4531H349.609V93.1836C349.594 92.4336 349.391 91.8555 349 91.4492C348.609 91.0352 348.055 90.8281 347.336 90.8281ZM354.344 94.5664C354.344 92.5898 354.785 91.0156 355.668 89.8438C356.559 88.6719 357.773 88.0859 359.312 88.0859C360.547 88.0859 361.566 88.5469 362.371 89.4688V83H365.77V101H362.711L362.547 99.6523C361.703 100.707 360.617 101.234 359.289 101.234C357.797 101.234 356.598 100.648 355.691 99.4766C354.793 98.2969 354.344 96.6602 354.344 94.5664ZM357.73 94.8125C357.73 96 357.938 96.9102 358.352 97.543C358.766 98.1758 359.367 98.4922 360.156 98.4922C361.203 98.4922 361.941 98.0508 362.371 97.168V92.1641C361.949 91.2812 361.219 90.8398 360.18 90.8398C358.547 90.8398 357.73 92.1641 357.73 94.8125ZM385.398 96.3945L387.062 88.3203H390.332L387.098 101H384.262L381.859 93.0195L379.457 101H376.633L373.398 88.3203H376.668L378.32 96.3828L380.641 88.3203H383.09L385.398 96.3945ZM395.594 101H392.195V88.3203H395.594V101ZM391.996 85.0391C391.996 84.5312 392.164 84.1133 392.5 83.7852C392.844 83.457 393.309 83.293 393.895 83.293C394.473 83.293 394.934 83.457 395.277 83.7852C395.621 84.1133 395.793 84.5312 395.793 85.0391C395.793 85.5547 395.617 85.9766 395.266 86.3047C394.922 86.6328 394.465 86.7969 393.895 86.7969C393.324 86.7969 392.863 86.6328 392.512 86.3047C392.168 85.9766 391.996 85.5547 391.996 85.0391ZM402.449 85.2031V88.3203H404.617V90.8047H402.449V97.1328C402.449 97.6016 402.539 97.9375 402.719 98.1406C402.898 98.3438 403.242 98.4453 403.75 98.4453C404.125 98.4453 404.457 98.418 404.746 98.3633V100.93C404.082 101.133 403.398 101.234 402.695 101.234C400.32 101.234 399.109 100.035 399.062 97.6367V90.8047H397.211V88.3203H399.062V85.2031H402.449ZM409.809 89.7031C410.707 88.625 411.836 88.0859 413.195 88.0859C415.945 88.0859 417.34 89.6836 417.379 92.8789V101H413.992V92.9727C413.992 92.2461 413.836 91.7109 413.523 91.3672C413.211 91.0156 412.691 90.8398 411.965 90.8398C410.973 90.8398 410.254 91.2227 409.809 91.9883V101H406.422V83H409.809V89.7031Z" fill="black"/>
<path fill-rule="evenodd" clip-rule="evenodd" d="M36.0577 95.9447C16.1435 95.9447 -3.05176e-05 112.088 -3.05176e-05 132.002C-3.05176e-05 151.917 16.1435 168.06 36.0577 168.06C55.9718 168.06 72.1154 151.917 72.1154 132.002C72.1154 112.088 55.9718 95.9447 36.0577 95.9447ZM36.3462 104.599C21.3708 104.599 9.23084 116.739 9.23084 131.714C9.23084 146.689 21.3708 158.829 36.3462 158.829C51.3216 158.829 63.4616 146.689 63.4616 131.714C63.4616 116.739 51.3216 104.599 36.3462 104.599Z" fill="#89DD52"/>
<path fill-rule="evenodd" clip-rule="evenodd" d="M36.3462 117.291C28.3806 117.291 21.9231 123.748 21.9231 131.714C21.9231 139.68 28.3806 146.137 36.3462 146.137C44.3119 146.137 50.7693 139.68 50.7693 131.714C50.7693 123.748 44.3119 117.291 36.3462 117.291ZM36.3462 127.099C33.7972 127.099 31.7308 129.165 31.7308 131.714C31.7308 134.263 33.7972 136.329 36.3462 136.329C38.8952 136.329 40.9616 134.263 40.9616 131.714C40.9616 129.165 38.8952 127.099 36.3462 127.099Z" fill="#89DD52"/>
<path fill-rule="evenodd" clip-rule="evenodd" d="M75.1496 28C55.2355 28 39.0919 44.1436 39.0919 64.0577C39.0919 83.9718 55.2355 100.115 75.1496 100.115C95.0637 100.115 111.207 83.9718 111.207 64.0577C111.207 44.1436 95.0637 28 75.1496 28ZM75.438 36.6539C60.4625 36.6539 48.3226 48.7938 48.3226 63.7692C48.3226 78.7447 60.4625 90.8846 75.438 90.8846C90.4134 90.8846 102.553 78.7447 102.553 63.7692C102.553 48.7938 90.4134 36.6539 75.438 36.6539Z" fill="#FF8F33"/>
<path fill-rule="evenodd" clip-rule="evenodd" d="M75.438 49.3462C67.4724 49.3462 61.0149 55.8036 61.0149 63.7692C61.0149 71.7349 67.4724 78.1923 75.438 78.1923C83.4037 78.1923 89.8611 71.7349 89.8611 63.7692C89.8611 55.8036 83.4037 49.3462 75.438 49.3462ZM75.438 59.1539C72.889 59.1539 70.8226 61.2203 70.8226 63.7693C70.8226 66.3183 72.889 68.3846 75.438 68.3846C77.987 68.3846 80.0533 66.3183 80.0533 63.7693C80.0533 61.2203 77.987 59.1539 75.438 59.1539Z" fill="#FF8F33"/>
<path fill-rule="evenodd" clip-rule="evenodd" d="M113.942 95.9447C94.0282 95.9447 77.8846 112.088 77.8846 132.002C77.8846 151.917 94.0282 168.06 113.942 168.06C133.856 168.06 150 151.917 150 132.002C150 112.088 133.856 95.9447 113.942 95.9447ZM114.231 104.599C99.2553 104.599 87.1153 116.739 87.1153 131.714C87.1153 146.689 99.2553 158.829 114.231 158.829C129.206 158.829 141.346 146.689 141.346 131.714C141.346 116.739 129.206 104.599 114.231 104.599Z" fill="#77C6E5"/>
<path fill-rule="evenodd" clip-rule="evenodd" d="M114.231 117.291C106.265 117.291 99.8078 123.748 99.8078 131.714C99.8078 139.68 106.265 146.137 114.231 146.137C122.196 146.137 128.654 139.68 128.654 131.714C128.654 123.748 122.196 117.291 114.231 117.291ZM114.231 127.099C111.682 127.099 109.615 129.165 109.615 131.714C109.615 134.263 111.682 136.329 114.231 136.329C116.78 136.329 118.846 134.263 118.846 131.714C118.846 129.165 116.78 127.099 114.231 127.099Z" fill="#77C6E5"/>
<defs>
<linearGradient id="paint0_linear" x1="426.519" y1="72.0445" x2="502.351" y2="112.045" gradientUnits="userSpaceOnUse">
<stop stop-color="white" stop-opacity="0.1"/>
<stop offset="0.14" stop-color="white" stop-opacity="0.08"/>
<stop offset="0.61" stop-color="white" stop-opacity="0.02"/>
<stop offset="1" stop-color="white" stop-opacity="0"/>
</linearGradient>
</defs>
</svg>
