<svg width="86" height="82" viewBox="0 0 86 82" fill="none" xmlns="http://www.w3.org/2000/svg">
<path fill-rule="evenodd" clip-rule="evenodd" d="M20.6729 39.714C9.25549 39.714 -0.000148773 48.9697 -0.000148773 60.3871C-0.000148773 71.8045 9.25549 81.0601 20.6729 81.0601C32.0903 81.0601 41.3459 71.8045 41.3459 60.3871C41.3459 48.9697 32.0903 39.714 20.6729 39.714ZM20.8386 44.6755C12.2527 44.6755 5.29249 51.6358 5.29249 60.2217C5.29249 68.8076 12.2527 75.7678 20.8386 75.7678C29.4245 75.7678 36.3847 68.8076 36.3847 60.2217C36.3847 51.6358 29.4245 44.6755 20.8386 44.6755Z" fill="#89DD52"/>
<path fill-rule="evenodd" clip-rule="evenodd" d="M20.8384 51.9525C16.2715 51.9525 12.5692 55.6547 12.5692 60.2217C12.5692 64.7887 16.2715 68.4909 20.8384 68.4909C25.4054 68.4909 29.1077 64.7887 29.1077 60.2217C29.1077 55.6547 25.4054 51.9525 20.8384 51.9525ZM20.8386 57.5756C19.3772 57.5756 18.1924 58.7603 18.1924 60.2217C18.1924 61.6831 19.3772 62.8679 20.8386 62.8679C22.3 62.8679 23.4847 61.6831 23.4847 60.2217C23.4847 58.7603 22.3 57.5756 20.8386 57.5756Z" fill="#89DD52"/>
<path fill-rule="evenodd" clip-rule="evenodd" d="M43.086 0.759129C31.6686 0.759129 22.4129 10.0148 22.4129 21.4322C22.4129 32.8496 31.6686 42.1052 43.086 42.1052C54.5034 42.1052 63.759 32.8496 63.759 21.4322C63.759 10.0148 54.5034 0.759129 43.086 0.759129ZM43.2513 5.72069C34.6654 5.72069 27.7052 12.6809 27.7052 21.2668C27.7052 29.8527 34.6654 36.813 43.2513 36.813C51.8372 36.813 58.7975 29.8527 58.7975 21.2668C58.7975 12.6809 51.8372 5.72069 43.2513 5.72069Z" fill="#FF8F33"/>
<path fill-rule="evenodd" clip-rule="evenodd" d="M43.2513 12.9976C38.6843 12.9976 34.9821 16.6998 34.9821 21.2668C34.9821 25.8338 38.6843 29.536 43.2513 29.536C47.8183 29.536 51.5205 25.8338 51.5205 21.2668C51.5205 16.6998 47.8183 12.9976 43.2513 12.9976ZM43.2511 18.6206C41.7896 18.6206 40.6049 19.8053 40.6049 21.2667C40.6049 22.7282 41.7896 23.9129 43.2511 23.9129C44.7125 23.9129 45.8972 22.7282 45.8972 21.2667C45.8972 19.8053 44.7125 18.6206 43.2511 18.6206Z" fill="#FF8F33"/>
<path fill-rule="evenodd" clip-rule="evenodd" d="M65.327 39.714C53.9095 39.714 44.6539 48.9697 44.6539 60.3871C44.6539 71.8045 53.9095 81.0601 65.327 81.0601C76.7444 81.0601 86 71.8045 86 60.3871C86 48.9697 76.7444 39.714 65.327 39.714ZM65.4924 44.6755C56.9065 44.6755 49.9462 51.6358 49.9462 60.2217C49.9462 68.8076 56.9065 75.7678 65.4924 75.7678C74.0783 75.7678 81.0385 68.8076 81.0385 60.2217C81.0385 51.6358 74.0783 44.6755 65.4924 44.6755Z" fill="#77C6E5"/>
<path fill-rule="evenodd" clip-rule="evenodd" d="M65.4923 51.9525C60.9253 51.9525 57.223 55.6547 57.223 60.2217C57.223 64.7887 60.9253 68.4909 65.4923 68.4909C70.0592 68.4909 73.7615 64.7887 73.7615 60.2217C73.7615 55.6547 70.0592 51.9525 65.4923 51.9525ZM65.4921 57.5756C64.0307 57.5756 62.846 58.7603 62.846 60.2217C62.846 61.6831 64.0307 62.8679 65.4921 62.8679C66.9535 62.8679 68.1383 61.6831 68.1383 60.2217C68.1383 58.7603 66.9535 57.5756 65.4921 57.5756Z" fill="#77C6E5"/>
</svg>
